<svg width="646" height="335" xmlns="http://www.w3.org/2000/svg" xmlns:xlink="http://www.w3.org/1999/xlink" xml:space="preserve" overflow="hidden"><g transform="translate(-102 -2270)"><g><g><g><g><path d="M610.393 789.92 359.054 789.92 359.054 634.329 861.731 634.329 861.731 789.92 610.393 789.92Z" stroke="#FFFFFF" stroke-width="1.3511" stroke-linecap="butt" stroke-linejoin="round" stroke-miterlimit="4" stroke-opacity="0.231" fill="#729FCF" fill-rule="evenodd" fill-opacity="0.231" transform="matrix(1 0 0 1.00177 -114.826 1813.29)"/><path d="M610.393 789.92 359.054 789.92 359.054 634.329 861.731 634.329 861.731 789.92 610.393 789.92Z" stroke="#000000" stroke-width="1.3511" stroke-linecap="butt" stroke-linejoin="round" stroke-miterlimit="4" stroke-opacity="1" fill="none" fill-rule="evenodd" transform="matrix(1 0 0 1.00177 -114.826 1813.29)"/><text fill="#000000" fill-opacity="1" font-family="Arial,Arial_MSFontService,sans-serif" font-style="normal" font-variant="normal" font-weight="400" font-stretch="normal" font-size="635" text-anchor="start" direction="ltr" writing-mode="lr-tb" unicode-bidi="normal" text-decoration="none" transform="matrix(0.0478739 0 0 0.0479587 325.327 2537)">sodium-potassium-nitrate</text><path d="M394.96 789.92 359.054 789.92 359.054 634.329 430.865 634.329 430.865 789.92 394.96 789.92Z" stroke="#000000" stroke-width="1.3511" stroke-linecap="butt" stroke-linejoin="round" stroke-miterlimit="4" stroke-opacity="1" fill="none" fill-rule="evenodd" transform="matrix(1 0 0 1.00177 -114.826 1813.29)"/><path d="M466.771 789.92 430.865 789.92 430.865 634.329 502.676 634.329 502.676 789.92 466.771 789.92Z" stroke="#000000" stroke-width="1.3511" stroke-linecap="butt" stroke-linejoin="round" stroke-miterlimit="4" stroke-opacity="1" fill="none" fill-rule="evenodd" transform="matrix(1 0 0 1.00177 -114.826 1813.29)"/><path d="M538.582 789.92 502.676 789.92 502.676 634.329 574.487 634.329 574.487 789.92 538.582 789.92Z" stroke="#000000" stroke-width="1.3511" stroke-linecap="butt" stroke-linejoin="round" stroke-miterlimit="4" stroke-opacity="1" fill="none" fill-rule="evenodd" transform="matrix(1 0 0 1.00177 -114.826 1813.29)"/><path d="M610.393 789.92 574.487 789.92 574.487 634.329 646.298 634.329 646.298 789.92 610.393 789.92Z" stroke="#000000" stroke-width="1.3511" stroke-linecap="butt" stroke-linejoin="round" stroke-miterlimit="4" stroke-opacity="1" fill="none" fill-rule="evenodd" transform="matrix(1 0 0 1.00177 -114.826 1813.29)"/><path d="M682.203 789.92 646.298 789.92 646.298 634.329 718.109 634.329 718.109 789.92 682.203 789.92Z" stroke="#000000" stroke-width="1.3511" stroke-linecap="butt" stroke-linejoin="round" stroke-miterlimit="4" stroke-opacity="1" fill="none" fill-rule="evenodd" transform="matrix(1 0 0 1.00177 -114.826 1813.29)"/><path d="M754.014 789.92 718.109 789.92 718.109 634.329 789.92 634.329 789.92 789.92 754.014 789.92Z" stroke="#000000" stroke-width="1.3511" stroke-linecap="butt" stroke-linejoin="round" stroke-miterlimit="4" stroke-opacity="1" fill="none" fill-rule="evenodd" transform="matrix(1 0 0 1.00177 -114.826 1813.29)"/><path d="M610.393 634.329 359.054 634.329 359.054 574.487 861.731 574.487 861.731 634.329 610.393 634.329Z" stroke="#FFFFFF" stroke-width="1.3511" stroke-linecap="butt" stroke-linejoin="round" stroke-miterlimit="4" stroke-opacity="0.769" fill="#996633" fill-rule="evenodd" fill-opacity="0.769" transform="matrix(1 0 0 1.00177 -114.826 1813.29)"/><path d="M610.393 634.329 359.054 634.329 359.054 574.487 861.731 574.487 861.731 634.329 610.393 634.329Z" stroke="#000000" stroke-width="1.3511" stroke-linecap="butt" stroke-linejoin="round" stroke-miterlimit="4" stroke-opacity="1" fill="none" fill-rule="evenodd" transform="matrix(1 0 0 1.00177 -114.826 1813.29)"/><text fill="#FFFFFF" fill-opacity="1" font-family="Arial,Arial_MSFontService,sans-serif" font-style="normal" font-variant="normal" font-weight="400" font-stretch="normal" font-size="635" text-anchor="start" direction="ltr" writing-mode="lr-tb" unicode-bidi="normal" text-decoration="none" transform="matrix(0.0478739 0 0 0.0479587 424.856 2429)">exchanger</text><path d="M406.928 617.717 406.928 655.729" stroke="#000000" stroke-width="3.87779" stroke-linecap="butt" stroke-linejoin="round" stroke-miterlimit="4" stroke-opacity="1" fill="none" fill-rule="evenodd" transform="matrix(1 0 0 1.00177 -114.826 1813.29)"/><path d="M406.928 588.849 396.875 619.106 417.03 619.106 406.928 588.849Z" fill="#000000" fill-rule="evenodd" fill-opacity="1" transform="matrix(1 0 0 1.00177 -114.826 1813.29)"/><path d="M406.928 684.597 417.03 654.389 396.875 654.389 406.928 684.597Z" fill="#000000" fill-rule="evenodd" fill-opacity="1" transform="matrix(1 0 0 1.00177 -114.826 1813.29)"/><path d="M464.377 617.717 464.377 655.729" stroke="#000000" stroke-width="3.87779" stroke-linecap="butt" stroke-linejoin="round" stroke-miterlimit="4" stroke-opacity="1" fill="none" fill-rule="evenodd" transform="matrix(1 0 0 1.00177 -114.826 1813.29)"/><path d="M464.377 588.849 454.324 619.106 474.478 619.106 464.377 588.849Z" fill="#000000" fill-rule="evenodd" fill-opacity="1" transform="matrix(1 0 0 1.00177 -114.826 1813.29)"/><path d="M464.377 684.597 474.478 654.389 454.324 654.389 464.377 684.597Z" fill="#000000" fill-rule="evenodd" fill-opacity="1" transform="matrix(1 0 0 1.00177 -114.826 1813.29)"/><path d="M524.219 617.717 524.219 655.729" stroke="#000000" stroke-width="3.87779" stroke-linecap="butt" stroke-linejoin="round" stroke-miterlimit="4" stroke-opacity="1" fill="none" fill-rule="evenodd" transform="matrix(1 0 0 1.00177 -114.826 1813.29)"/><path d="M524.219 588.849 514.166 619.106 534.321 619.106 524.219 588.849Z" fill="#000000" fill-rule="evenodd" fill-opacity="1" transform="matrix(1 0 0 1.00177 -114.826 1813.29)"/><path d="M524.219 684.597 534.321 654.389 514.166 654.389 524.219 684.597Z" fill="#000000" fill-rule="evenodd" fill-opacity="1" transform="matrix(1 0 0 1.00177 -114.826 1813.29)"/><path d="M610.393 648.835 610.393 662.91" stroke="#000000" stroke-width="3.87779" stroke-linecap="butt" stroke-linejoin="round" stroke-miterlimit="4" stroke-opacity="1" fill="none" fill-rule="evenodd" transform="matrix(1 0 0 1.00177 -114.826 1813.29)"/><path d="M610.393 619.967 600.339 650.224 620.494 650.224 610.393 619.967Z" fill="#000000" fill-rule="evenodd" fill-opacity="1" transform="matrix(1 0 0 1.00177 -114.826 1813.29)"/><path d="M610.393 691.778 620.494 661.57 600.339 661.57 610.393 691.778Z" fill="#000000" fill-rule="evenodd" fill-opacity="1" transform="matrix(1 0 0 1.00177 -114.826 1813.29)"/><path d="M706.14 620.111 706.14 658.123" stroke="#000000" stroke-width="3.87779" stroke-linecap="butt" stroke-linejoin="round" stroke-miterlimit="4" stroke-opacity="1" fill="none" fill-rule="evenodd" transform="matrix(1 0 0 1.00177 -114.826 1813.29)"/><path d="M706.14 591.243 696.087 621.499 716.242 621.499 706.14 591.243Z" fill="#000000" fill-rule="evenodd" fill-opacity="1" transform="matrix(1 0 0 1.00177 -114.826 1813.29)"/><path d="M706.14 686.991 716.242 656.782 696.087 656.782 706.14 686.991Z" fill="#000000" fill-rule="evenodd" fill-opacity="1" transform="matrix(1 0 0 1.00177 -114.826 1813.29)"/><path d="M754.014 620.111 754.014 658.123" stroke="#000000" stroke-width="3.87779" stroke-linecap="butt" stroke-linejoin="round" stroke-miterlimit="4" stroke-opacity="1" fill="none" fill-rule="evenodd" transform="matrix(1 0 0 1.00177 -114.826 1813.29)"/><path d="M754.014 591.243 743.961 621.499 764.116 621.499 754.014 591.243Z" fill="#000000" fill-rule="evenodd" fill-opacity="1" transform="matrix(1 0 0 1.00177 -114.826 1813.29)"/><path d="M754.014 686.991 764.116 656.782 743.961 656.782 754.014 686.991Z" fill="#000000" fill-rule="evenodd" fill-opacity="1" transform="matrix(1 0 0 1.00177 -114.826 1813.29)"/><path d="M818.644 617.717 818.644 655.729" stroke="#000000" stroke-width="3.87779" stroke-linecap="butt" stroke-linejoin="round" stroke-miterlimit="4" stroke-opacity="1" fill="none" fill-rule="evenodd" transform="matrix(1 0 0 1.00177 -114.826 1813.29)"/><path d="M818.644 588.849 808.591 619.106 828.745 619.106 818.644 588.849Z" fill="#000000" fill-rule="evenodd" fill-opacity="1" transform="matrix(1 0 0 1.00177 -114.826 1813.29)"/><path d="M818.644 684.597 828.745 654.389 808.591 654.389 818.644 684.597Z" fill="#000000" fill-rule="evenodd" fill-opacity="1" transform="matrix(1 0 0 1.00177 -114.826 1813.29)"/><path d="M227.401 694.172 316.734 694.172" stroke="#3465A4" stroke-width="10.1493" stroke-linecap="butt" stroke-linejoin="round" stroke-miterlimit="4" stroke-opacity="1" fill="none" fill-rule="evenodd" transform="matrix(1 0 0 1.00177 -114.826 1813.29)"/><path d="M359.054 694.172 314.771 679.427 314.771 708.965 359.054 694.172Z" fill="#3465A4" fill-rule="evenodd" fill-opacity="1" transform="matrix(1 0 0 1.00177 -114.826 1813.29)"/><text fill="#000000" fill-opacity="1" font-family="Arial,Arial_MSFontService,sans-serif" font-style="normal" font-variant="normal" font-weight="400" font-stretch="normal" font-size="635" text-anchor="start" direction="ltr" writing-mode="lr-tb" unicode-bidi="normal" text-decoration="none" transform="matrix(0.0478739 0 0 0.0479587 114.968 2444)">calcium</text><text fill="#000000" fill-opacity="1" font-family="Arial,Arial_MSFontService,sans-serif" font-style="normal" font-variant="normal" font-weight="400" font-stretch="normal" font-size="635" text-anchor="start" direction="ltr" writing-mode="lr-tb" unicode-bidi="normal" text-decoration="none" transform="matrix(0.0478739 0 0 0.0479587 114.968 2478)">chloride</text><text fill="#000000" fill-opacity="1" font-family="Arial,Arial_MSFontService,sans-serif" font-style="normal" font-variant="normal" font-weight="400" font-stretch="normal" font-size="635" text-anchor="start" direction="ltr" writing-mode="lr-tb" unicode-bidi="normal" text-decoration="none" transform="matrix(0.0478739 0 0 0.0479587 258.59 2305)">40 cells</text><text fill="#000000" fill-opacity="1" font-family="Arial,Arial_MSFontService,sans-serif" font-style="normal" font-variant="normal" font-weight="400" font-stretch="normal" font-size="635" text-anchor="start" direction="ltr" writing-mode="lr-tb" unicode-bidi="normal" text-decoration="none" transform="matrix(0.0478739 0 0 0.0479587 258.59 2339)">3 pore volumes</text><text fill="#000000" fill-opacity="1" font-family="Arial,Arial_MSFontService,sans-serif" font-style="normal" font-variant="normal" font-weight="400" font-stretch="normal" font-size="635" text-anchor="start" direction="ltr" writing-mode="lr-tb" unicode-bidi="normal" text-decoration="none" transform="matrix(0.0478739 0 0 0.0479587 258.59 2373)">120 shifts</text></g></g></g></g></g></svg>