<?xml version="1.0" encoding="utf-8" standalone="no"?>
<!DOCTYPE svg PUBLIC "-//W3C//DTD SVG 1.1//EN"
  "http://www.w3.org/Graphics/SVG/1.1/DTD/svg11.dtd">
<svg xmlns:xlink="http://www.w3.org/1999/xlink" width="460.8pt" height="345.6pt" viewBox="0 0 460.8 345.6" xmlns="http://www.w3.org/2000/svg" version="1.1">
 <metadata>
  <rdf:RDF xmlns:dc="http://purl.org/dc/elements/1.1/" xmlns:cc="http://creativecommons.org/ns#" xmlns:rdf="http://www.w3.org/1999/02/22-rdf-syntax-ns#">
   <cc:Work>
    <dc:type rdf:resource="http://purl.org/dc/dcmitype/StillImage"/>
    <dc:date>2026-01-26T07:48:12.174675</dc:date>
    <dc:format>image/svg+xml</dc:format>
    <dc:creator>
     <cc:Agent>
      <dc:title>Matplotlib v3.10.8, https://matplotlib.org/</dc:title>
     </cc:Agent>
    </dc:creator>
   </cc:Work>
  </rdf:RDF>
 </metadata>
 <defs>
  <style type="text/css">*{stroke-linejoin: round; stroke-linecap: butt}</style>
 </defs>
 <g id="figure_1">
  <g id="patch_1">
   <path d="M 0 345.6 
L 460.8 345.6 
L 460.8 0 
L 0 0 
z
" style="fill: #ffffff"/>
  </g>
  <g id="axes_1">
   <g id="patch_2">
    <path d="M 57.6 307.584 
L 414.72 307.584 
L 414.72 41.472 
L 57.6 41.472 
z
" style="fill: #ffffff"/>
   </g>
   <g id="matplotlib.axis_1">
    <g id="xtick_1">
     <g id="line2d_1">
      <defs>
       <path id="ma8654e1288" d="M 0 0 
L 0 3.5 
" style="stroke: #000000; stroke-width: 0.8"/>
      </defs>
      <g>
       <use xlink:href="#ma8654e1288" x="71.104538" y="307.584" style="stroke: #000000; stroke-width: 0.8"/>
      </g>
     </g>
     <g id="text_1">
      <!-- 0.00 -->
      <g transform="translate(59.971725 322.182437) scale(0.1 -0.1)">
       <defs>
        <path id="DejaVuSans-30" d="M 2034 4250 
Q 1547 4250 1301 3770 
Q 1056 3291 1056 2328 
Q 1056 1369 1301 889 
Q 1547 409 2034 409 
Q 2525 409 2770 889 
Q 3016 1369 3016 2328 
Q 3016 3291 2770 3770 
Q 2525 4250 2034 4250 
z
M 2034 4750 
Q 2819 4750 3233 4129 
Q 3647 3509 3647 2328 
Q 3647 1150 3233 529 
Q 2819 -91 2034 -91 
Q 1250 -91 836 529 
Q 422 1150 422 2328 
Q 422 3509 836 4129 
Q 1250 4750 2034 4750 
z
" transform="scale(0.015625)"/>
        <path id="DejaVuSans-2e" d="M 684 794 
L 1344 794 
L 1344 0 
L 684 0 
L 684 794 
z
" transform="scale(0.015625)"/>
       </defs>
       <use xlink:href="#DejaVuSans-30"/>
       <use xlink:href="#DejaVuSans-2e" transform="translate(63.623047 0)"/>
       <use xlink:href="#DejaVuSans-30" transform="translate(95.410156 0)"/>
       <use xlink:href="#DejaVuSans-30" transform="translate(159.033203 0)"/>
      </g>
     </g>
    </g>
    <g id="xtick_2">
     <g id="line2d_2">
      <g>
       <use xlink:href="#ma8654e1288" x="139.309274" y="307.584" style="stroke: #000000; stroke-width: 0.8"/>
      </g>
     </g>
     <g id="text_2">
      <!-- 0.05 -->
      <g transform="translate(128.176462 322.182437) scale(0.1 -0.1)">
       <defs>
        <path id="DejaVuSans-35" d="M 691 4666 
L 3169 4666 
L 3169 4134 
L 1269 4134 
L 1269 2991 
Q 1406 3038 1543 3061 
Q 1681 3084 1819 3084 
Q 2600 3084 3056 2656 
Q 3513 2228 3513 1497 
Q 3513 744 3044 326 
Q 2575 -91 1722 -91 
Q 1428 -91 1123 -41 
Q 819 9 494 109 
L 494 744 
Q 775 591 1075 516 
Q 1375 441 1709 441 
Q 2250 441 2565 725 
Q 2881 1009 2881 1497 
Q 2881 1984 2565 2268 
Q 2250 2553 1709 2553 
Q 1456 2553 1204 2497 
Q 953 2441 691 2322 
L 691 4666 
z
" transform="scale(0.015625)"/>
       </defs>
       <use xlink:href="#DejaVuSans-30"/>
       <use xlink:href="#DejaVuSans-2e" transform="translate(63.623047 0)"/>
       <use xlink:href="#DejaVuSans-30" transform="translate(95.410156 0)"/>
       <use xlink:href="#DejaVuSans-35" transform="translate(159.033203 0)"/>
      </g>
     </g>
    </g>
    <g id="xtick_3">
     <g id="line2d_3">
      <g>
       <use xlink:href="#ma8654e1288" x="207.514011" y="307.584" style="stroke: #000000; stroke-width: 0.8"/>
      </g>
     </g>
     <g id="text_3">
      <!-- 0.10 -->
      <g transform="translate(196.381198 322.182437) scale(0.1 -0.1)">
       <defs>
        <path id="DejaVuSans-31" d="M 794 531 
L 1825 531 
L 1825 4091 
L 703 3866 
L 703 4441 
L 1819 4666 
L 2450 4666 
L 2450 531 
L 3481 531 
L 3481 0 
L 794 0 
L 794 531 
z
" transform="scale(0.015625)"/>
       </defs>
       <use xlink:href="#DejaVuSans-30"/>
       <use xlink:href="#DejaVuSans-2e" transform="translate(63.623047 0)"/>
       <use xlink:href="#DejaVuSans-31" transform="translate(95.410156 0)"/>
       <use xlink:href="#DejaVuSans-30" transform="translate(159.033203 0)"/>
      </g>
     </g>
    </g>
    <g id="xtick_4">
     <g id="line2d_4">
      <g>
       <use xlink:href="#ma8654e1288" x="275.718747" y="307.584" style="stroke: #000000; stroke-width: 0.8"/>
      </g>
     </g>
     <g id="text_4">
      <!-- 0.15 -->
      <g transform="translate(264.585935 322.182437) scale(0.1 -0.1)">
       <use xlink:href="#DejaVuSans-30"/>
       <use xlink:href="#DejaVuSans-2e" transform="translate(63.623047 0)"/>
       <use xlink:href="#DejaVuSans-31" transform="translate(95.410156 0)"/>
       <use xlink:href="#DejaVuSans-35" transform="translate(159.033203 0)"/>
      </g>
     </g>
    </g>
    <g id="xtick_5">
     <g id="line2d_5">
      <g>
       <use xlink:href="#ma8654e1288" x="343.923484" y="307.584" style="stroke: #000000; stroke-width: 0.8"/>
      </g>
     </g>
     <g id="text_5">
      <!-- 0.20 -->
      <g transform="translate(332.790671 322.182437) scale(0.1 -0.1)">
       <defs>
        <path id="DejaVuSans-32" d="M 1228 531 
L 3431 531 
L 3431 0 
L 469 0 
L 469 531 
Q 828 903 1448 1529 
Q 2069 2156 2228 2338 
Q 2531 2678 2651 2914 
Q 2772 3150 2772 3378 
Q 2772 3750 2511 3984 
Q 2250 4219 1831 4219 
Q 1534 4219 1204 4116 
Q 875 4013 500 3803 
L 500 4441 
Q 881 4594 1212 4672 
Q 1544 4750 1819 4750 
Q 2544 4750 2975 4387 
Q 3406 4025 3406 3419 
Q 3406 3131 3298 2873 
Q 3191 2616 2906 2266 
Q 2828 2175 2409 1742 
Q 1991 1309 1228 531 
z
" transform="scale(0.015625)"/>
       </defs>
       <use xlink:href="#DejaVuSans-30"/>
       <use xlink:href="#DejaVuSans-2e" transform="translate(63.623047 0)"/>
       <use xlink:href="#DejaVuSans-32" transform="translate(95.410156 0)"/>
       <use xlink:href="#DejaVuSans-30" transform="translate(159.033203 0)"/>
      </g>
     </g>
    </g>
    <g id="xtick_6">
     <g id="line2d_6">
      <g>
       <use xlink:href="#ma8654e1288" x="412.12822" y="307.584" style="stroke: #000000; stroke-width: 0.8"/>
      </g>
     </g>
     <g id="text_6">
      <!-- 0.25 -->
      <g transform="translate(400.995408 322.182437) scale(0.1 -0.1)">
       <use xlink:href="#DejaVuSans-30"/>
       <use xlink:href="#DejaVuSans-2e" transform="translate(63.623047 0)"/>
       <use xlink:href="#DejaVuSans-32" transform="translate(95.410156 0)"/>
       <use xlink:href="#DejaVuSans-35" transform="translate(159.033203 0)"/>
      </g>
     </g>
    </g>
    <g id="text_7">
     <!-- time (days) -->
     <g transform="translate(207.570937 335.860562) scale(0.1 -0.1)">
      <defs>
       <path id="DejaVuSans-74" d="M 1172 4494 
L 1172 3500 
L 2356 3500 
L 2356 3053 
L 1172 3053 
L 1172 1153 
Q 1172 725 1289 603 
Q 1406 481 1766 481 
L 2356 481 
L 2356 0 
L 1766 0 
Q 1100 0 847 248 
Q 594 497 594 1153 
L 594 3053 
L 172 3053 
L 172 3500 
L 594 3500 
L 594 4494 
L 1172 4494 
z
" transform="scale(0.015625)"/>
       <path id="DejaVuSans-69" d="M 603 3500 
L 1178 3500 
L 1178 0 
L 603 0 
L 603 3500 
z
M 603 4863 
L 1178 4863 
L 1178 4134 
L 603 4134 
L 603 4863 
z
" transform="scale(0.015625)"/>
       <path id="DejaVuSans-6d" d="M 3328 2828 
Q 3544 3216 3844 3400 
Q 4144 3584 4550 3584 
Q 5097 3584 5394 3201 
Q 5691 2819 5691 2113 
L 5691 0 
L 5113 0 
L 5113 2094 
Q 5113 2597 4934 2840 
Q 4756 3084 4391 3084 
Q 3944 3084 3684 2787 
Q 3425 2491 3425 1978 
L 3425 0 
L 2847 0 
L 2847 2094 
Q 2847 2600 2669 2842 
Q 2491 3084 2119 3084 
Q 1678 3084 1418 2786 
Q 1159 2488 1159 1978 
L 1159 0 
L 581 0 
L 581 3500 
L 1159 3500 
L 1159 2956 
Q 1356 3278 1631 3431 
Q 1906 3584 2284 3584 
Q 2666 3584 2933 3390 
Q 3200 3197 3328 2828 
z
" transform="scale(0.015625)"/>
       <path id="DejaVuSans-65" d="M 3597 1894 
L 3597 1613 
L 953 1613 
Q 991 1019 1311 708 
Q 1631 397 2203 397 
Q 2534 397 2845 478 
Q 3156 559 3463 722 
L 3463 178 
Q 3153 47 2828 -22 
Q 2503 -91 2169 -91 
Q 1331 -91 842 396 
Q 353 884 353 1716 
Q 353 2575 817 3079 
Q 1281 3584 2069 3584 
Q 2775 3584 3186 3129 
Q 3597 2675 3597 1894 
z
M 3022 2063 
Q 3016 2534 2758 2815 
Q 2500 3097 2075 3097 
Q 1594 3097 1305 2825 
Q 1016 2553 972 2059 
L 3022 2063 
z
" transform="scale(0.015625)"/>
       <path id="DejaVuSans-20" transform="scale(0.015625)"/>
       <path id="DejaVuSans-28" d="M 1984 4856 
Q 1566 4138 1362 3434 
Q 1159 2731 1159 2009 
Q 1159 1288 1364 580 
Q 1569 -128 1984 -844 
L 1484 -844 
Q 1016 -109 783 600 
Q 550 1309 550 2009 
Q 550 2706 781 3412 
Q 1013 4119 1484 4856 
L 1984 4856 
z
" transform="scale(0.015625)"/>
       <path id="DejaVuSans-64" d="M 2906 2969 
L 2906 4863 
L 3481 4863 
L 3481 0 
L 2906 0 
L 2906 525 
Q 2725 213 2448 61 
Q 2172 -91 1784 -91 
Q 1150 -91 751 415 
Q 353 922 353 1747 
Q 353 2572 751 3078 
Q 1150 3584 1784 3584 
Q 2172 3584 2448 3432 
Q 2725 3281 2906 2969 
z
M 947 1747 
Q 947 1113 1208 752 
Q 1469 391 1925 391 
Q 2381 391 2643 752 
Q 2906 1113 2906 1747 
Q 2906 2381 2643 2742 
Q 2381 3103 1925 3103 
Q 1469 3103 1208 2742 
Q 947 2381 947 1747 
z
" transform="scale(0.015625)"/>
       <path id="DejaVuSans-61" d="M 2194 1759 
Q 1497 1759 1228 1600 
Q 959 1441 959 1056 
Q 959 750 1161 570 
Q 1363 391 1709 391 
Q 2188 391 2477 730 
Q 2766 1069 2766 1631 
L 2766 1759 
L 2194 1759 
z
M 3341 1997 
L 3341 0 
L 2766 0 
L 2766 531 
Q 2569 213 2275 61 
Q 1981 -91 1556 -91 
Q 1019 -91 701 211 
Q 384 513 384 1019 
Q 384 1609 779 1909 
Q 1175 2209 1959 2209 
L 2766 2209 
L 2766 2266 
Q 2766 2663 2505 2880 
Q 2244 3097 1772 3097 
Q 1472 3097 1187 3025 
Q 903 2953 641 2809 
L 641 3341 
Q 956 3463 1253 3523 
Q 1550 3584 1831 3584 
Q 2591 3584 2966 3190 
Q 3341 2797 3341 1997 
z
" transform="scale(0.015625)"/>
       <path id="DejaVuSans-79" d="M 2059 -325 
Q 1816 -950 1584 -1140 
Q 1353 -1331 966 -1331 
L 506 -1331 
L 506 -850 
L 844 -850 
Q 1081 -850 1212 -737 
Q 1344 -625 1503 -206 
L 1606 56 
L 191 3500 
L 800 3500 
L 1894 763 
L 2988 3500 
L 3597 3500 
L 2059 -325 
z
" transform="scale(0.015625)"/>
       <path id="DejaVuSans-73" d="M 2834 3397 
L 2834 2853 
Q 2591 2978 2328 3040 
Q 2066 3103 1784 3103 
Q 1356 3103 1142 2972 
Q 928 2841 928 2578 
Q 928 2378 1081 2264 
Q 1234 2150 1697 2047 
L 1894 2003 
Q 2506 1872 2764 1633 
Q 3022 1394 3022 966 
Q 3022 478 2636 193 
Q 2250 -91 1575 -91 
Q 1294 -91 989 -36 
Q 684 19 347 128 
L 347 722 
Q 666 556 975 473 
Q 1284 391 1588 391 
Q 1994 391 2212 530 
Q 2431 669 2431 922 
Q 2431 1156 2273 1281 
Q 2116 1406 1581 1522 
L 1381 1569 
Q 847 1681 609 1914 
Q 372 2147 372 2553 
Q 372 3047 722 3315 
Q 1072 3584 1716 3584 
Q 2034 3584 2315 3537 
Q 2597 3491 2834 3397 
z
" transform="scale(0.015625)"/>
       <path id="DejaVuSans-29" d="M 513 4856 
L 1013 4856 
Q 1481 4119 1714 3412 
Q 1947 2706 1947 2009 
Q 1947 1309 1714 600 
Q 1481 -109 1013 -844 
L 513 -844 
Q 928 -128 1133 580 
Q 1338 1288 1338 2009 
Q 1338 2731 1133 3434 
Q 928 4138 513 4856 
z
" transform="scale(0.015625)"/>
      </defs>
      <use xlink:href="#DejaVuSans-74"/>
      <use xlink:href="#DejaVuSans-69" transform="translate(39.208984 0)"/>
      <use xlink:href="#DejaVuSans-6d" transform="translate(66.992188 0)"/>
      <use xlink:href="#DejaVuSans-65" transform="translate(164.404297 0)"/>
      <use xlink:href="#DejaVuSans-20" transform="translate(225.927734 0)"/>
      <use xlink:href="#DejaVuSans-28" transform="translate(257.714844 0)"/>
      <use xlink:href="#DejaVuSans-64" transform="translate(296.728516 0)"/>
      <use xlink:href="#DejaVuSans-61" transform="translate(360.205078 0)"/>
      <use xlink:href="#DejaVuSans-79" transform="translate(421.484375 0)"/>
      <use xlink:href="#DejaVuSans-73" transform="translate(480.664062 0)"/>
      <use xlink:href="#DejaVuSans-29" transform="translate(532.763672 0)"/>
     </g>
    </g>
   </g>
   <g id="matplotlib.axis_2">
    <g id="ytick_1">
     <g id="line2d_7">
      <defs>
       <path id="me48e7c3995" d="M 0 0 
L -3.5 0 
" style="stroke: #000000; stroke-width: 0.8"/>
      </defs>
      <g>
       <use xlink:href="#me48e7c3995" x="57.6" y="295.488" style="stroke: #000000; stroke-width: 0.8"/>
      </g>
     </g>
     <g id="text_8">
      <!-- 0.0 -->
      <g transform="translate(34.696875 299.287219) scale(0.1 -0.1)">
       <use xlink:href="#DejaVuSans-30"/>
       <use xlink:href="#DejaVuSans-2e" transform="translate(63.623047 0)"/>
       <use xlink:href="#DejaVuSans-30" transform="translate(95.410156 0)"/>
      </g>
     </g>
    </g>
    <g id="ytick_2">
     <g id="line2d_8">
      <g>
       <use xlink:href="#me48e7c3995" x="57.6" y="255.168" style="stroke: #000000; stroke-width: 0.8"/>
      </g>
     </g>
     <g id="text_9">
      <!-- 0.2 -->
      <g transform="translate(34.696875 258.967219) scale(0.1 -0.1)">
       <use xlink:href="#DejaVuSans-30"/>
       <use xlink:href="#DejaVuSans-2e" transform="translate(63.623047 0)"/>
       <use xlink:href="#DejaVuSans-32" transform="translate(95.410156 0)"/>
      </g>
     </g>
    </g>
    <g id="ytick_3">
     <g id="line2d_9">
      <g>
       <use xlink:href="#me48e7c3995" x="57.6" y="214.848" style="stroke: #000000; stroke-width: 0.8"/>
      </g>
     </g>
     <g id="text_10">
      <!-- 0.4 -->
      <g transform="translate(34.696875 218.647219) scale(0.1 -0.1)">
       <defs>
        <path id="DejaVuSans-34" d="M 2419 4116 
L 825 1625 
L 2419 1625 
L 2419 4116 
z
M 2253 4666 
L 3047 4666 
L 3047 1625 
L 3713 1625 
L 3713 1100 
L 3047 1100 
L 3047 0 
L 2419 0 
L 2419 1100 
L 313 1100 
L 313 1709 
L 2253 4666 
z
" transform="scale(0.015625)"/>
       </defs>
       <use xlink:href="#DejaVuSans-30"/>
       <use xlink:href="#DejaVuSans-2e" transform="translate(63.623047 0)"/>
       <use xlink:href="#DejaVuSans-34" transform="translate(95.410156 0)"/>
      </g>
     </g>
    </g>
    <g id="ytick_4">
     <g id="line2d_10">
      <g>
       <use xlink:href="#me48e7c3995" x="57.6" y="174.528" style="stroke: #000000; stroke-width: 0.8"/>
      </g>
     </g>
     <g id="text_11">
      <!-- 0.6 -->
      <g transform="translate(34.696875 178.327219) scale(0.1 -0.1)">
       <defs>
        <path id="DejaVuSans-36" d="M 2113 2584 
Q 1688 2584 1439 2293 
Q 1191 2003 1191 1497 
Q 1191 994 1439 701 
Q 1688 409 2113 409 
Q 2538 409 2786 701 
Q 3034 994 3034 1497 
Q 3034 2003 2786 2293 
Q 2538 2584 2113 2584 
z
M 3366 4563 
L 3366 3988 
Q 3128 4100 2886 4159 
Q 2644 4219 2406 4219 
Q 1781 4219 1451 3797 
Q 1122 3375 1075 2522 
Q 1259 2794 1537 2939 
Q 1816 3084 2150 3084 
Q 2853 3084 3261 2657 
Q 3669 2231 3669 1497 
Q 3669 778 3244 343 
Q 2819 -91 2113 -91 
Q 1303 -91 875 529 
Q 447 1150 447 2328 
Q 447 3434 972 4092 
Q 1497 4750 2381 4750 
Q 2619 4750 2861 4703 
Q 3103 4656 3366 4563 
z
" transform="scale(0.015625)"/>
       </defs>
       <use xlink:href="#DejaVuSans-30"/>
       <use xlink:href="#DejaVuSans-2e" transform="translate(63.623047 0)"/>
       <use xlink:href="#DejaVuSans-36" transform="translate(95.410156 0)"/>
      </g>
     </g>
    </g>
    <g id="ytick_5">
     <g id="line2d_11">
      <g>
       <use xlink:href="#me48e7c3995" x="57.6" y="134.208" style="stroke: #000000; stroke-width: 0.8"/>
      </g>
     </g>
     <g id="text_12">
      <!-- 0.8 -->
      <g transform="translate(34.696875 138.007219) scale(0.1 -0.1)">
       <defs>
        <path id="DejaVuSans-38" d="M 2034 2216 
Q 1584 2216 1326 1975 
Q 1069 1734 1069 1313 
Q 1069 891 1326 650 
Q 1584 409 2034 409 
Q 2484 409 2743 651 
Q 3003 894 3003 1313 
Q 3003 1734 2745 1975 
Q 2488 2216 2034 2216 
z
M 1403 2484 
Q 997 2584 770 2862 
Q 544 3141 544 3541 
Q 544 4100 942 4425 
Q 1341 4750 2034 4750 
Q 2731 4750 3128 4425 
Q 3525 4100 3525 3541 
Q 3525 3141 3298 2862 
Q 3072 2584 2669 2484 
Q 3125 2378 3379 2068 
Q 3634 1759 3634 1313 
Q 3634 634 3220 271 
Q 2806 -91 2034 -91 
Q 1263 -91 848 271 
Q 434 634 434 1313 
Q 434 1759 690 2068 
Q 947 2378 1403 2484 
z
M 1172 3481 
Q 1172 3119 1398 2916 
Q 1625 2713 2034 2713 
Q 2441 2713 2670 2916 
Q 2900 3119 2900 3481 
Q 2900 3844 2670 4047 
Q 2441 4250 2034 4250 
Q 1625 4250 1398 4047 
Q 1172 3844 1172 3481 
z
" transform="scale(0.015625)"/>
       </defs>
       <use xlink:href="#DejaVuSans-30"/>
       <use xlink:href="#DejaVuSans-2e" transform="translate(63.623047 0)"/>
       <use xlink:href="#DejaVuSans-38" transform="translate(95.410156 0)"/>
      </g>
     </g>
    </g>
    <g id="ytick_6">
     <g id="line2d_12">
      <g>
       <use xlink:href="#me48e7c3995" x="57.6" y="93.888" style="stroke: #000000; stroke-width: 0.8"/>
      </g>
     </g>
     <g id="text_13">
      <!-- 1.0 -->
      <g transform="translate(34.696875 97.687219) scale(0.1 -0.1)">
       <use xlink:href="#DejaVuSans-31"/>
       <use xlink:href="#DejaVuSans-2e" transform="translate(63.623047 0)"/>
       <use xlink:href="#DejaVuSans-30" transform="translate(95.410156 0)"/>
      </g>
     </g>
    </g>
    <g id="ytick_7">
     <g id="line2d_13">
      <g>
       <use xlink:href="#me48e7c3995" x="57.6" y="53.568" style="stroke: #000000; stroke-width: 0.8"/>
      </g>
     </g>
     <g id="text_14">
      <!-- 1.2 -->
      <g transform="translate(34.696875 57.367219) scale(0.1 -0.1)">
       <use xlink:href="#DejaVuSans-31"/>
       <use xlink:href="#DejaVuSans-2e" transform="translate(63.623047 0)"/>
       <use xlink:href="#DejaVuSans-32" transform="translate(95.410156 0)"/>
      </g>
     </g>
    </g>
    <g id="text_15">
     <!--  concentrations (mmols/kgw) -->
     <g transform="translate(28.617187 247.478) rotate(-90) scale(0.1 -0.1)">
      <defs>
       <path id="DejaVuSans-63" d="M 3122 3366 
L 3122 2828 
Q 2878 2963 2633 3030 
Q 2388 3097 2138 3097 
Q 1578 3097 1268 2742 
Q 959 2388 959 1747 
Q 959 1106 1268 751 
Q 1578 397 2138 397 
Q 2388 397 2633 464 
Q 2878 531 3122 666 
L 3122 134 
Q 2881 22 2623 -34 
Q 2366 -91 2075 -91 
Q 1284 -91 818 406 
Q 353 903 353 1747 
Q 353 2603 823 3093 
Q 1294 3584 2113 3584 
Q 2378 3584 2631 3529 
Q 2884 3475 3122 3366 
z
" transform="scale(0.015625)"/>
       <path id="DejaVuSans-6f" d="M 1959 3097 
Q 1497 3097 1228 2736 
Q 959 2375 959 1747 
Q 959 1119 1226 758 
Q 1494 397 1959 397 
Q 2419 397 2687 759 
Q 2956 1122 2956 1747 
Q 2956 2369 2687 2733 
Q 2419 3097 1959 3097 
z
M 1959 3584 
Q 2709 3584 3137 3096 
Q 3566 2609 3566 1747 
Q 3566 888 3137 398 
Q 2709 -91 1959 -91 
Q 1206 -91 779 398 
Q 353 888 353 1747 
Q 353 2609 779 3096 
Q 1206 3584 1959 3584 
z
" transform="scale(0.015625)"/>
       <path id="DejaVuSans-6e" d="M 3513 2113 
L 3513 0 
L 2938 0 
L 2938 2094 
Q 2938 2591 2744 2837 
Q 2550 3084 2163 3084 
Q 1697 3084 1428 2787 
Q 1159 2491 1159 1978 
L 1159 0 
L 581 0 
L 581 3500 
L 1159 3500 
L 1159 2956 
Q 1366 3272 1645 3428 
Q 1925 3584 2291 3584 
Q 2894 3584 3203 3211 
Q 3513 2838 3513 2113 
z
" transform="scale(0.015625)"/>
       <path id="DejaVuSans-72" d="M 2631 2963 
Q 2534 3019 2420 3045 
Q 2306 3072 2169 3072 
Q 1681 3072 1420 2755 
Q 1159 2438 1159 1844 
L 1159 0 
L 581 0 
L 581 3500 
L 1159 3500 
L 1159 2956 
Q 1341 3275 1631 3429 
Q 1922 3584 2338 3584 
Q 2397 3584 2469 3576 
Q 2541 3569 2628 3553 
L 2631 2963 
z
" transform="scale(0.015625)"/>
       <path id="DejaVuSans-6c" d="M 603 4863 
L 1178 4863 
L 1178 0 
L 603 0 
L 603 4863 
z
" transform="scale(0.015625)"/>
       <path id="DejaVuSans-2f" d="M 1625 4666 
L 2156 4666 
L 531 -594 
L 0 -594 
L 1625 4666 
z
" transform="scale(0.015625)"/>
       <path id="DejaVuSans-6b" d="M 581 4863 
L 1159 4863 
L 1159 1991 
L 2875 3500 
L 3609 3500 
L 1753 1863 
L 3688 0 
L 2938 0 
L 1159 1709 
L 1159 0 
L 581 0 
L 581 4863 
z
" transform="scale(0.015625)"/>
       <path id="DejaVuSans-67" d="M 2906 1791 
Q 2906 2416 2648 2759 
Q 2391 3103 1925 3103 
Q 1463 3103 1205 2759 
Q 947 2416 947 1791 
Q 947 1169 1205 825 
Q 1463 481 1925 481 
Q 2391 481 2648 825 
Q 2906 1169 2906 1791 
z
M 3481 434 
Q 3481 -459 3084 -895 
Q 2688 -1331 1869 -1331 
Q 1566 -1331 1297 -1286 
Q 1028 -1241 775 -1147 
L 775 -588 
Q 1028 -725 1275 -790 
Q 1522 -856 1778 -856 
Q 2344 -856 2625 -561 
Q 2906 -266 2906 331 
L 2906 616 
Q 2728 306 2450 153 
Q 2172 0 1784 0 
Q 1141 0 747 490 
Q 353 981 353 1791 
Q 353 2603 747 3093 
Q 1141 3584 1784 3584 
Q 2172 3584 2450 3431 
Q 2728 3278 2906 2969 
L 2906 3500 
L 3481 3500 
L 3481 434 
z
" transform="scale(0.015625)"/>
       <path id="DejaVuSans-77" d="M 269 3500 
L 844 3500 
L 1563 769 
L 2278 3500 
L 2956 3500 
L 3675 769 
L 4391 3500 
L 4966 3500 
L 4050 0 
L 3372 0 
L 2619 2869 
L 1863 0 
L 1184 0 
L 269 3500 
z
" transform="scale(0.015625)"/>
      </defs>
      <use xlink:href="#DejaVuSans-20"/>
      <use xlink:href="#DejaVuSans-63" transform="translate(31.787109 0)"/>
      <use xlink:href="#DejaVuSans-6f" transform="translate(86.767578 0)"/>
      <use xlink:href="#DejaVuSans-6e" transform="translate(147.949219 0)"/>
      <use xlink:href="#DejaVuSans-63" transform="translate(211.328125 0)"/>
      <use xlink:href="#DejaVuSans-65" transform="translate(266.308594 0)"/>
      <use xlink:href="#DejaVuSans-6e" transform="translate(327.832031 0)"/>
      <use xlink:href="#DejaVuSans-74" transform="translate(391.210938 0)"/>
      <use xlink:href="#DejaVuSans-72" transform="translate(430.419922 0)"/>
      <use xlink:href="#DejaVuSans-61" transform="translate(471.533203 0)"/>
      <use xlink:href="#DejaVuSans-74" transform="translate(532.8125 0)"/>
      <use xlink:href="#DejaVuSans-69" transform="translate(572.021484 0)"/>
      <use xlink:href="#DejaVuSans-6f" transform="translate(599.804688 0)"/>
      <use xlink:href="#DejaVuSans-6e" transform="translate(660.986328 0)"/>
      <use xlink:href="#DejaVuSans-73" transform="translate(724.365234 0)"/>
      <use xlink:href="#DejaVuSans-20" transform="translate(776.464844 0)"/>
      <use xlink:href="#DejaVuSans-28" transform="translate(808.251953 0)"/>
      <use xlink:href="#DejaVuSans-6d" transform="translate(847.265625 0)"/>
      <use xlink:href="#DejaVuSans-6d" transform="translate(944.677734 0)"/>
      <use xlink:href="#DejaVuSans-6f" transform="translate(1042.089844 0)"/>
      <use xlink:href="#DejaVuSans-6c" transform="translate(1103.271484 0)"/>
      <use xlink:href="#DejaVuSans-73" transform="translate(1131.054688 0)"/>
      <use xlink:href="#DejaVuSans-2f" transform="translate(1183.154297 0)"/>
      <use xlink:href="#DejaVuSans-6b" transform="translate(1216.845703 0)"/>
      <use xlink:href="#DejaVuSans-67" transform="translate(1274.755859 0)"/>
      <use xlink:href="#DejaVuSans-77" transform="translate(1338.232422 0)"/>
      <use xlink:href="#DejaVuSans-29" transform="translate(1420.019531 0)"/>
     </g>
    </g>
   </g>
   <g id="line2d_14">
    <path d="M 73.832727 94.492917 
L 76.560917 94.492917 
L 79.289106 94.492917 
L 82.017296 94.492917 
L 84.745485 94.492917 
L 87.473675 94.492917 
L 90.201864 94.492917 
L 92.930053 94.492917 
L 95.658243 94.492917 
L 98.386432 94.492916 
L 101.114622 94.492913 
L 103.842811 94.492904 
L 106.571001 94.492883 
L 109.29919 94.492833 
L 112.02738 94.492728 
L 114.755569 94.49253 
L 117.483759 94.492178 
L 120.211948 94.491599 
L 122.940138 94.490702 
L 125.668327 94.489389 
L 128.396516 94.487571 
L 131.124706 94.485178 
L 133.852895 94.482179 
L 136.581085 94.478608 
L 139.309274 94.474578 
L 142.037464 94.470319 
L 144.765653 94.466131 
L 147.493843 94.462488 
L 150.222032 94.459579 
L 152.950222 94.458578 
L 155.678411 94.460583 
L 158.4066 94.466984 
L 161.13479 94.479616 
L 163.862979 94.500844 
L 166.591169 94.533656 
L 169.319358 94.581876 
L 172.047548 94.650372 
L 174.775737 94.745511 
L 177.503927 94.875591 
L 180.232116 95.051429 
L 182.960306 95.287473 
L 185.688495 95.602257 
L 188.416684 96.020405 
L 191.144874 96.573036 
L 193.873063 97.300961 
L 196.601253 98.255521 
L 199.329442 99.501703 
L 202.057632 101.120236 
L 204.785821 103.20926 
L 207.514011 105.88669 
L 210.2422 109.286071 
L 212.97039 113.553461 
L 215.698579 118.829377 
L 218.426769 125.232437 
L 221.154958 132.823677 
L 223.883147 141.583156 
L 226.611337 151.385941 
L 229.339526 162.00774 
L 232.067716 173.152478 
L 234.795905 184.495482 
L 237.524095 195.72914 
L 240.252284 206.589802 
L 242.980474 216.877219 
L 245.708663 226.456508 
L 248.436853 235.250628 
L 251.165042 243.231604 
L 253.893231 250.408122 
L 256.621421 256.8122 
L 259.34961 262.506187 
L 262.0778 267.585878 
L 264.805989 272.116854 
L 267.534179 276.288999 
L 270.262368 280.189903 
L 272.990558 283.323312 
L 275.718747 285.792973 
L 278.446937 287.779568 
L 281.175126 289.35882 
L 283.903316 290.606893 
L 286.631505 291.593832 
L 289.359694 292.376187 
L 292.087884 292.997976 
L 294.816073 293.493278 
L 297.544263 293.888575 
L 300.272452 294.203674 
L 303.000642 294.456925 
L 305.728831 294.660408 
L 308.457021 294.823833 
L 311.18521 294.955043 
L 313.9134 295.060365 
L 316.641589 295.144893 
L 319.369778 295.212724 
L 322.097968 295.26715 
L 324.826157 295.310815 
L 327.554347 295.345842 
L 330.282536 295.373933 
L 333.010726 295.396455 
L 335.738915 295.414504 
L 338.467105 295.428961 
L 341.195294 295.440529 
L 343.923484 295.449775 
L 346.651673 295.457153 
L 349.379862 295.463025 
L 352.108052 295.467688 
L 354.836241 295.471378 
L 357.564431 295.474291 
L 360.29262 295.476586 
L 363.02081 295.478393 
L 365.748999 295.479819 
L 368.477189 295.480948 
L 371.205378 295.481846 
L 373.933568 295.482566 
L 376.661757 295.483147 
L 379.389947 295.483621 
L 382.118136 295.484011 
L 384.846325 295.484335 
L 387.574515 295.484607 
L 390.302704 295.484838 
L 393.030894 295.485036 
L 395.759083 295.485207 
L 398.487273 295.485356 
" clip-path="url(#p5ce96981a9)" style="fill: none; stroke: #1f77b4; stroke-width: 1.5; stroke-linecap: square"/>
   </g>
   <g id="line2d_15">
    <path d="M 73.832727 295.488 
L 76.560917 295.488 
L 79.289106 295.488 
L 82.017296 295.488 
L 84.745485 295.488 
L 87.473675 295.487999 
L 90.201864 295.487993 
L 92.930053 295.487968 
L 95.658243 295.487865 
L 98.386432 295.487483 
L 101.114622 295.486254 
L 103.842811 295.482756 
L 106.571001 295.473854 
L 109.29919 295.453328 
L 112.02738 295.40995 
L 114.755569 295.325108 
L 117.483759 295.170244 
L 120.211948 294.904535 
L 122.940138 294.473348 
L 125.668327 293.807984 
L 128.396516 292.827069 
L 131.124706 291.439757 
L 133.852895 289.550571 
L 136.581085 287.065482 
L 139.309274 283.898586 
L 142.037464 279.978676 
L 144.765653 275.254984 
L 147.493843 269.701541 
L 150.222032 263.31974 
L 152.950222 256.138962 
L 155.678411 248.215304 
L 158.4066 239.628666 
L 161.13479 230.478549 
L 163.862979 220.879017 
L 166.591169 210.953269 
L 169.319358 200.828228 
L 172.047548 190.629516 
L 174.775737 180.477043 
L 177.503927 170.481413 
L 180.232116 160.741222 
L 182.960306 151.341248 
L 185.688495 142.351474 
L 188.416684 133.826851 
L 191.144874 125.807684 
L 193.873063 118.32051 
L 196.601253 111.379337 
L 199.329442 104.98711 
L 202.057632 99.13731 
L 204.785821 93.815574 
L 207.514011 89.001288 
L 210.2422 84.669071 
L 212.97039 80.790136 
L 215.698579 77.333492 
L 218.426769 74.266976 
L 221.154958 71.558122 
L 223.883147 69.17487 
L 226.611337 67.086113 
L 229.339526 65.262124 
L 232.067716 63.674853 
L 234.795905 62.298127 
L 237.524095 61.10776 
L 240.252284 60.081598 
L 242.980474 59.199508 
L 245.708663 58.443319 
L 248.436853 57.79674 
L 251.165042 57.24525 
L 253.893231 56.775974 
L 256.621421 56.377558 
L 259.34961 56.041255 
L 262.0778 55.756015 
L 264.805989 55.514775 
L 267.534179 55.311299 
L 270.262368 55.140099 
L 272.990558 54.996383 
L 275.718747 54.875991 
L 278.446937 54.775336 
L 281.175126 54.691341 
L 283.903316 54.62137 
L 286.631505 54.563182 
L 289.359694 54.51487 
L 292.087884 54.474823 
L 294.816073 54.441678 
L 297.544263 54.414286 
L 300.272452 54.391685 
L 303.000642 54.373065 
L 305.728831 54.35775 
L 308.457021 54.345176 
L 311.18521 54.334873 
L 313.9134 54.326449 
L 316.641589 54.31958 
L 319.369778 54.313995 
L 322.097968 54.309469 
L 324.826157 54.305813 
L 327.554347 54.30287 
L 330.282536 54.300506 
L 333.010726 54.298609 
L 335.738915 54.297086 
L 338.467105 54.295861 
L 341.195294 54.294872 
L 343.923484 54.29407 
L 346.651673 54.293416 
L 349.379862 54.292878 
L 352.108052 54.292432 
L 354.836241 54.29206 
L 357.564431 54.291746 
L 360.29262 54.291479 
L 363.02081 54.29125 
L 365.748999 54.291052 
L 368.477189 54.29088 
L 371.205378 54.290728 
L 373.933568 54.290594 
L 376.661757 54.290474 
L 379.389947 54.290367 
L 382.118136 54.290271 
L 384.846325 54.290183 
L 387.574515 54.290104 
L 390.302704 54.290031 
L 393.030894 54.289964 
L 395.759083 54.289903 
L 398.487273 54.289846 
" clip-path="url(#p5ce96981a9)" style="fill: none; stroke: #ff7f0e; stroke-width: 1.5; stroke-linecap: square"/>
   </g>
   <g id="line2d_16">
    <path d="M 73.832727 255.288983 
L 76.560917 255.288983 
L 79.289106 255.288983 
L 82.017296 255.288983 
L 84.745485 255.288983 
L 87.473675 255.288983 
L 90.201864 255.288983 
L 92.930053 255.288983 
L 95.658243 255.288983 
L 98.386432 255.288983 
L 101.114622 255.288982 
L 103.842811 255.28898 
L 106.571001 255.288975 
L 109.29919 255.288964 
L 112.02738 255.28894 
L 114.755569 255.288895 
L 117.483759 255.288815 
L 120.211948 255.288679 
L 122.940138 255.288464 
L 125.668327 255.288139 
L 128.396516 255.287666 
L 131.124706 255.287003 
L 133.852895 255.286098 
L 136.581085 255.284885 
L 139.309274 255.283282 
L 142.037464 255.281174 
L 144.765653 255.278391 
L 147.493843 255.27469 
L 150.222032 255.269683 
L 152.950222 255.262917 
L 155.678411 255.253685 
L 158.4066 255.240986 
L 161.13479 255.223427 
L 163.862979 255.199092 
L 166.591169 255.165336 
L 169.319358 255.118585 
L 172.047548 255.053987 
L 174.775737 254.965117 
L 177.503927 254.843426 
L 180.232116 254.67761 
L 182.960306 254.453068 
L 185.688495 254.150505 
L 188.416684 253.745339 
L 191.144874 253.20526 
L 193.873063 252.489635 
L 196.601253 251.546281 
L 199.329442 250.309951 
L 202.057632 248.699392 
L 204.785821 246.615443 
L 207.514011 243.941069 
L 210.2422 240.541784 
L 212.97039 236.274904 
L 215.698579 230.998433 
L 218.426769 224.598784 
L 221.154958 217.012691 
L 223.883147 208.264013 
L 226.611337 198.476095 
L 229.339526 187.87197 
L 232.067716 176.746054 
L 234.795905 165.420397 
L 237.524095 154.208276 
L 240.252284 143.37808 
L 242.980474 133.125598 
L 245.708663 123.624991 
L 248.436853 114.925039 
L 251.165042 107.158495 
L 253.893231 100.224668 
L 256.621421 94.043206 
L 259.34961 87.791437 
L 262.0778 83.025402 
L 264.805989 80.983107 
L 267.534179 90.879259 
L 270.262368 126.50135 
L 272.990558 160.310238 
L 275.718747 185.87359 
L 278.446937 208.066588 
L 281.175126 226.519149 
L 283.903316 241.167772 
L 286.631505 252.620767 
L 289.359694 261.57362 
L 292.087884 268.572649 
L 294.816073 274.0696 
L 297.544263 278.404064 
L 300.272452 281.833769 
L 303.000642 284.555756 
L 305.728831 286.721702 
L 308.457021 288.449093 
L 311.18521 289.829435 
L 313.9134 290.934348 
L 316.641589 291.820124 
L 319.369778 292.531167 
L 322.097968 293.102617 
L 324.826157 293.562358 
L 327.554347 293.932574 
L 330.282536 294.230391 
L 333.010726 294.470888 
L 335.738915 294.665673 
L 338.467105 294.823327 
L 341.195294 294.950853 
L 343.923484 295.053962 
L 346.651673 295.1373 
L 349.379862 295.204644 
L 352.108052 295.259054 
L 354.836241 295.303006 
L 357.564431 295.338507 
L 360.29262 295.367177 
L 363.02081 295.390325 
L 365.748999 295.409011 
L 368.477189 295.424088 
L 371.205378 295.436246 
L 373.933568 295.446042 
L 376.661757 295.453924 
L 379.389947 295.460256 
L 382.118136 295.465332 
L 384.846325 295.46939 
L 387.574515 295.472626 
L 390.302704 295.4752 
L 393.030894 295.477245 
L 395.759083 295.478871 
L 398.487273 295.480165 
" clip-path="url(#p5ce96981a9)" style="fill: none; stroke: #2ca02c; stroke-width: 1.5; stroke-linecap: square"/>
   </g>
   <g id="line2d_17">
    <path d="M 73.832727 295.488 
L 76.560917 295.488 
L 79.289106 295.488 
L 82.017296 295.488 
L 84.745485 295.488 
L 87.473675 295.488 
L 90.201864 295.488 
L 92.930053 295.488 
L 95.658243 295.488 
L 98.386432 295.488 
L 101.114622 295.488 
L 103.842811 295.488 
L 106.571001 295.488 
L 109.29919 295.488 
L 112.02738 295.488 
L 114.755569 295.488 
L 117.483759 295.488 
L 120.211948 295.488 
L 122.940138 295.488 
L 125.668327 295.488 
L 128.396516 295.488 
L 131.124706 295.488 
L 133.852895 295.488 
L 136.581085 295.488 
L 139.309274 295.488 
L 142.037464 295.488 
L 144.765653 295.488 
L 147.493843 295.488 
L 150.222032 295.488 
L 152.950222 295.488 
L 155.678411 295.488 
L 158.4066 295.488 
L 161.13479 295.488 
L 163.862979 295.488 
L 166.591169 295.488 
L 169.319358 295.488 
L 172.047548 295.488 
L 174.775737 295.488 
L 177.503927 295.488 
L 180.232116 295.488 
L 182.960306 295.488 
L 185.688495 295.488 
L 188.416684 295.488 
L 191.144874 295.488 
L 193.873063 295.488 
L 196.601253 295.488 
L 199.329442 295.487999 
L 202.057632 295.487999 
L 204.785821 295.487998 
L 207.514011 295.487998 
L 210.2422 295.487996 
L 212.97039 295.487993 
L 215.698579 295.487989 
L 218.426769 295.48798 
L 221.154958 295.487964 
L 223.883147 295.487934 
L 226.611337 295.487877 
L 229.339526 295.487768 
L 232.067716 295.487561 
L 234.795905 295.487164 
L 237.524095 295.486427 
L 240.252284 295.485034 
L 242.980474 295.482496 
L 245.708663 295.477768 
L 248.436853 295.469209 
L 251.165042 295.453153 
L 253.893231 295.423091 
L 256.621421 295.362258 
L 259.34961 295.228151 
L 262.0778 294.874103 
L 264.805989 293.603942 
L 267.534179 286.575006 
L 270.262368 266.846455 
L 272.990558 248.410472 
L 275.718747 234.420561 
L 278.446937 222.353948 
L 281.175126 212.357376 
L 283.903316 204.408367 
L 286.631505 198.200403 
L 289.359694 193.352097 
L 292.087884 189.553081 
L 294.816073 186.565261 
L 297.544263 184.206739 
L 300.272452 182.33882 
L 303.000642 180.855226 
L 305.728831 179.67395 
L 308.457021 178.731363 
L 311.18521 177.977835 
L 313.9134 177.374465 
L 316.641589 176.890645 
L 319.369778 176.502201 
L 322.097968 176.190604 
L 324.826157 175.939495 
L 327.554347 175.736498 
L 330.282536 175.572519 
L 333.010726 175.440221 
L 335.738915 175.333536 
L 338.467105 175.247496 
L 341.195294 175.178099 
L 343.923484 175.122123 
L 346.651673 175.076971 
L 349.379862 175.040549 
L 352.108052 175.01117 
L 354.836241 174.987475 
L 357.564431 174.968369 
L 360.29262 174.952967 
L 363.02081 174.940559 
L 365.748999 174.930571 
L 368.477189 174.922541 
L 371.205378 174.916096 
L 373.933568 174.910934 
L 376.661757 174.90681 
L 379.389947 174.903524 
L 382.118136 174.900912 
L 384.846325 174.898838 
L 387.574515 174.897189 
L 390.302704 174.895877 
L 393.030894 174.894827 
L 395.759083 174.893984 
L 398.487273 174.893303 
" clip-path="url(#p5ce96981a9)" style="fill: none; stroke: #d62728; stroke-width: 1.5; stroke-linecap: square"/>
   </g>
   <g id="line2d_18">
    <path d="M 73.832727 93.888 
L 76.560917 93.888 
L 79.289106 93.890016 
L 82.017296 93.890016 
L 84.745485 93.890016 
L 87.473675 93.890016 
L 90.201864 93.890016 
L 92.930053 93.890016 
L 95.658243 93.890016 
L 98.386432 93.890016 
L 101.114622 93.890016 
L 103.842811 93.890016 
L 106.571001 93.890016 
L 109.29919 93.890016 
L 112.02738 93.890016 
L 114.755569 93.890016 
L 117.483759 93.890016 
L 120.211948 93.890016 
L 122.940138 93.890016 
L 125.668327 93.890016 
L 128.396516 93.890016 
L 131.124706 93.892032 
L 133.852895 93.892032 
L 136.581085 93.892032 
L 139.309274 93.892032 
L 142.037464 93.894048 
L 144.765653 93.894048 
L 147.493843 93.896064 
L 150.222032 93.89808 
L 152.950222 93.902112 
L 155.678411 93.904128 
L 158.4066 93.910176 
L 161.13479 93.916224 
L 163.862979 93.926304 
L 166.591169 93.9384 
L 169.319358 93.954528 
L 172.047548 93.97872 
L 174.775737 94.012992 
L 177.503927 94.05936 
L 180.232116 94.123872 
L 182.960306 94.214592 
L 185.688495 94.339584 
L 188.416684 94.51296 
L 191.144874 94.750848 
L 193.873063 95.075424 
L 196.601253 95.52096 
L 199.329442 96.123744 
L 202.057632 96.940224 
L 204.785821 98.036928 
L 207.514011 99.506592 
L 210.2422 101.460096 
L 212.97039 104.042592 
L 215.698579 107.423424 
L 218.426769 111.80016 
L 221.154958 117.38448 
L 223.883147 124.367904 
L 226.611337 132.879456 
L 229.339526 142.925184 
L 232.067716 154.339776 
L 234.795905 166.778496 
L 237.524095 179.765568 
L 240.252284 192.780864 
L 242.980474 205.364736 
L 245.708663 217.172448 
L 248.436853 227.990304 
L 251.165042 237.721536 
L 253.893231 246.348 
L 256.621421 253.91808 
L 259.34961 260.508384 
L 262.0778 266.217696 
L 264.805989 271.148832 
L 267.534179 275.396141 
L 270.262368 279.07151 
L 272.990558 282.325939 
L 275.718747 285.317078 
L 278.446937 287.78184 
L 281.175126 289.60128 
L 283.903316 290.949782 
L 286.631505 291.967862 
L 289.359694 292.745837 
L 292.087884 293.345194 
L 294.816073 293.80966 
L 297.544263 294.170947 
L 300.272452 294.452865 
L 303.000642 294.673415 
L 305.728831 294.846287 
L 308.457021 294.982004 
L 311.18521 295.088731 
L 313.9134 295.172718 
L 316.641589 295.238903 
L 319.369778 295.291099 
L 322.097968 295.332288 
L 324.826157 295.364814 
L 327.554347 295.390514 
L 330.282536 295.41083 
L 333.010726 295.426895 
L 335.738915 295.439606 
L 338.467105 295.449664 
L 341.195294 295.457627 
L 343.923484 295.463931 
L 346.651673 295.468925 
L 349.379862 295.472881 
L 352.108052 295.476015 
L 354.836241 295.478499 
L 357.564431 295.480467 
L 360.29262 295.482027 
L 363.02081 295.483264 
L 365.748999 295.484244 
L 368.477189 295.485022 
L 371.205378 295.485638 
L 373.933568 295.486127 
L 376.661757 295.486514 
L 379.389947 295.486822 
L 382.118136 295.487065 
L 384.846325 295.487259 
L 387.574515 295.487412 
L 390.302704 295.487534 
L 393.030894 295.48763 
L 395.759083 295.487707 
L 398.487273 295.487767 
" clip-path="url(#p5ce96981a9)" style="fill: none; stroke-dasharray: 5.55,2.4; stroke-dashoffset: 0; stroke: #1f77b4; stroke-width: 1.5"/>
   </g>
   <g id="line2d_19">
    <path d="M 73.832727 295.488 
L 76.560917 295.488 
L 79.289106 295.488 
L 82.017296 295.488 
L 84.745485 295.488 
L 87.473675 295.488 
L 90.201864 295.488 
L 92.930053 295.488 
L 95.658243 295.488 
L 98.386432 295.488 
L 101.114622 295.488 
L 103.842811 295.488 
L 106.571001 295.488 
L 109.29919 295.488 
L 112.02738 295.488 
L 114.755569 295.488 
L 117.483759 295.488 
L 120.211948 295.488 
L 122.940138 295.488 
L 125.668327 295.488 
L 128.396516 295.488 
L 131.124706 295.488 
L 133.852895 295.488 
L 136.581085 295.488 
L 139.309274 295.488 
L 142.037464 295.488 
L 144.765653 295.488 
L 147.493843 295.488 
L 150.222032 295.488 
L 152.950222 295.488 
L 155.678411 295.488 
L 158.4066 295.488 
L 161.13479 295.488 
L 163.862979 295.488 
L 166.591169 295.488 
L 169.319358 295.488 
L 172.047548 295.488 
L 174.775737 295.488 
L 177.503927 295.488 
L 180.232116 295.488 
L 182.960306 295.488 
L 185.688495 295.488 
L 188.416684 295.488 
L 191.144874 295.488 
L 193.873063 295.488 
L 196.601253 295.488 
L 199.329442 295.488 
L 202.057632 295.488 
L 204.785821 295.488 
L 207.514011 295.488 
L 210.2422 295.488 
L 212.97039 295.487999 
L 215.698579 295.487999 
L 218.426769 295.487998 
L 221.154958 295.487996 
L 223.883147 295.487992 
L 226.611337 295.487984 
L 229.339526 295.487968 
L 232.067716 295.487933 
L 234.795905 295.487864 
L 237.524095 295.487721 
L 240.252284 295.487436 
L 242.980474 295.486875 
L 245.708663 295.485782 
L 248.436853 295.483705 
L 251.165042 295.479718 
L 253.893231 295.472289 
L 256.621421 295.457933 
L 259.34961 295.430717 
L 262.0778 295.374729 
L 264.805989 295.255878 
L 267.534179 294.947833 
L 270.262368 293.966686 
L 272.990558 289.362586 
L 275.718747 271.22544 
L 278.446937 246.096 
L 281.175126 226.891584 
L 283.903316 213.539616 
L 286.631505 204.046272 
L 289.359694 197.109216 
L 292.087884 191.93616 
L 294.816073 188.029152 
L 297.544263 185.045472 
L 300.272452 182.75328 
L 303.000642 180.9792 
L 305.728831 179.602272 
L 308.457021 178.525728 
L 311.18521 177.685056 
L 313.9134 177.025824 
L 316.641589 176.505696 
L 319.369778 176.096448 
L 322.097968 175.773888 
L 324.826157 175.517856 
L 327.554347 175.316256 
L 330.282536 175.154976 
L 333.010726 175.027968 
L 335.738915 174.927168 
L 338.467105 174.846528 
L 341.195294 174.782016 
L 343.923484 174.7296 
L 346.651673 174.68928 
L 349.379862 174.657024 
L 352.108052 174.630816 
L 354.836241 174.610656 
L 357.564431 174.594528 
L 360.29262 174.580416 
L 363.02081 174.570336 
L 365.748999 174.562272 
L 368.477189 174.556224 
L 371.205378 174.550176 
L 373.933568 174.546144 
L 376.661757 174.542112 
L 379.389947 174.540096 
L 382.118136 174.536064 
L 384.846325 174.536064 
L 387.574515 174.534048 
L 390.302704 174.532032 
L 393.030894 174.532032 
L 395.759083 174.530016 
L 398.487273 174.530016 
" clip-path="url(#p5ce96981a9)" style="fill: none; stroke-dasharray: 5.55,2.4; stroke-dashoffset: 0; stroke: #d62728; stroke-width: 1.5"/>
   </g>
   <g id="line2d_20">
    <path d="M 73.832727 255.168 
L 76.560917 255.168 
L 79.289106 255.168 
L 82.017296 255.168 
L 84.745485 255.168 
L 87.473675 255.168 
L 90.201864 255.168 
L 92.930053 255.168 
L 95.658243 255.168 
L 98.386432 255.168 
L 101.114622 255.168 
L 103.842811 255.168 
L 106.571001 255.168 
L 109.29919 255.168 
L 112.02738 255.170016 
L 114.755569 255.170016 
L 117.483759 255.170016 
L 120.211948 255.170016 
L 122.940138 255.170016 
L 125.668327 255.170016 
L 128.396516 255.170016 
L 131.124706 255.170016 
L 133.852895 255.170016 
L 136.581085 255.170016 
L 139.309274 255.170016 
L 142.037464 255.170016 
L 144.765653 255.170016 
L 147.493843 255.168 
L 150.222032 255.168 
L 152.950222 255.168 
L 155.678411 255.165984 
L 158.4066 255.163968 
L 161.13479 255.159936 
L 163.862979 255.153888 
L 166.591169 255.145824 
L 169.319358 255.131712 
L 172.047548 255.111552 
L 174.775737 255.081312 
L 177.503927 255.038976 
L 180.232116 254.978496 
L 182.960306 254.893824 
L 185.688495 254.772864 
L 188.416684 254.605536 
L 191.144874 254.373696 
L 193.873063 254.055168 
L 196.601253 253.61568 
L 199.329442 253.02096 
L 202.057632 252.212544 
L 204.785821 251.121888 
L 207.514011 249.660288 
L 210.2422 247.714848 
L 212.97039 245.140416 
L 215.698579 241.767648 
L 218.426769 237.398976 
L 221.154958 231.824736 
L 223.883147 224.851392 
L 226.611337 216.351936 
L 229.339526 206.318304 
L 232.067716 194.915808 
L 234.795905 182.489184 
L 237.524095 169.516224 
L 240.252284 156.511008 
L 242.980474 143.939232 
L 245.708663 132.145632 
L 248.436853 121.351968 
L 251.165042 111.640896 
L 253.893231 103.068864 
L 256.621421 95.533056 
L 259.34961 89.11008 
L 262.0778 83.52576 
L 264.805989 78.78816 
L 267.534179 75.0384 
L 270.262368 72.88128 
L 272.990558 78.6672 
L 275.718747 111.947328 
L 278.446937 159.789024 
L 281.175126 196.423776 
L 283.903316 221.825376 
L 286.631505 239.828256 
L 289.359694 252.954432 
L 292.087884 262.721952 
L 294.816073 270.092448 
L 297.544263 275.711846 
L 300.272452 280.027901 
L 303.000642 283.363574 
L 305.728831 285.954134 
L 308.457021 287.973965 
L 311.18521 289.554307 
L 313.9134 290.794147 
L 316.641589 291.769488 
L 319.369778 292.538189 
L 322.097968 293.145206 
L 324.826157 293.625276 
L 327.554347 294.005615 
L 330.282536 294.307269 
L 333.010726 294.54683 
L 335.738915 294.737242 
L 338.467105 294.888744 
L 341.195294 295.009402 
L 343.923484 295.105565 
L 346.651673 295.182253 
L 349.379862 295.243439 
L 352.108052 295.292309 
L 354.836241 295.331349 
L 357.564431 295.362556 
L 360.29262 295.387512 
L 363.02081 295.407479 
L 365.748999 295.423458 
L 368.477189 295.436253 
L 371.205378 295.446501 
L 373.933568 295.454712 
L 376.661757 295.461292 
L 379.389947 295.466566 
L 382.118136 295.470796 
L 384.846325 295.474189 
L 387.574515 295.47691 
L 390.302704 295.479094 
L 393.030894 295.480847 
L 395.759083 295.482254 
L 398.487273 295.483383 
" clip-path="url(#p5ce96981a9)" style="fill: none; stroke-dasharray: 5.55,2.4; stroke-dashoffset: 0; stroke: #2ca02c; stroke-width: 1.5"/>
   </g>
   <g id="line2d_21">
    <path d="M 73.832727 295.488 
L 76.560917 295.488 
L 79.289106 295.488 
L 82.017296 295.488 
L 84.745485 295.488 
L 87.473675 295.488 
L 90.201864 295.488 
L 92.930053 295.488 
L 95.658243 295.487999 
L 98.386432 295.487997 
L 101.114622 295.487983 
L 103.842811 295.487922 
L 106.571001 295.487692 
L 109.29919 295.486909 
L 112.02738 295.48453 
L 114.755569 295.478002 
L 117.483759 295.461695 
L 120.211948 295.424385 
L 122.940138 295.345652 
L 125.668327 295.191487 
L 128.396516 294.909791 
L 131.124706 294.426798 
L 133.852895 293.645779 
L 136.581085 292.449082 
L 139.309274 290.704032 
L 142.037464 288.272333 
L 144.765653 285.021331 
L 147.493843 280.83793 
L 150.222032 275.63927 
L 152.950222 269.382816 
L 155.678411 262.068768 
L 158.4066 253.748736 
L 161.13479 244.511424 
L 163.862979 234.487872 
L 166.591169 223.833312 
L 169.319358 212.72112 
L 172.047548 201.336768 
L 174.775737 189.857664 
L 177.503927 178.457184 
L 180.232116 167.29056 
L 182.960306 156.486816 
L 185.688495 146.16288 
L 188.416684 136.401408 
L 191.144874 127.264896 
L 193.873063 118.793664 
L 196.601253 111.007872 
L 199.329442 103.911552 
L 202.057632 97.490592 
L 204.785821 91.73088 
L 207.514011 86.56992 
L 210.2422 82.01376 
L 212.97039 77.98176 
L 215.698579 74.45376 
L 218.426769 71.36928 
L 221.154958 68.70816 
L 223.883147 66.38976 
L 226.611337 64.39392 
L 229.339526 62.68032 
L 232.067716 61.2288 
L 234.795905 59.99904 
L 237.524095 58.93056 
L 240.252284 58.04352 
L 242.980474 57.2976 
L 245.708663 56.67264 
L 248.436853 56.12832 
L 251.165042 55.6848 
L 253.893231 55.32192 
L 256.621421 55.01952 
L 259.34961 54.75744 
L 262.0778 54.53568 
L 264.805989 54.3744 
L 267.534179 54.23328 
L 270.262368 54.11232 
L 272.990558 54.01152 
L 275.718747 53.93088 
L 278.446937 53.8704 
L 281.175126 53.80992 
L 283.903316 53.7696 
L 286.631505 53.72928 
L 289.359694 53.68896 
L 292.087884 53.6688 
L 294.816073 53.64864 
L 297.544263 53.62848 
L 300.272452 53.62848 
L 303.000642 53.60832 
L 305.728831 53.60832 
L 308.457021 53.58816 
L 311.18521 53.58816 
L 313.9134 53.58816 
L 316.641589 53.58816 
L 319.369778 53.58816 
L 322.097968 53.568 
L 324.826157 53.568 
L 327.554347 53.568 
L 330.282536 53.568 
L 333.010726 53.568 
L 335.738915 53.568 
L 338.467105 53.568 
L 341.195294 53.568 
L 343.923484 53.568 
L 346.651673 53.568 
L 349.379862 53.568 
L 352.108052 53.568 
L 354.836241 53.568 
L 357.564431 53.568 
L 360.29262 53.568 
L 363.02081 53.568 
L 365.748999 53.568 
L 368.477189 53.568 
L 371.205378 53.568 
L 373.933568 53.568 
L 376.661757 53.568 
L 379.389947 53.568 
L 382.118136 53.568 
L 384.846325 53.568 
L 387.574515 53.568 
L 390.302704 53.568 
L 393.030894 53.568 
L 395.759083 53.568 
L 398.487273 53.568 
" clip-path="url(#p5ce96981a9)" style="fill: none; stroke-dasharray: 5.55,2.4; stroke-dashoffset: 0; stroke: #ff7f0e; stroke-width: 1.5"/>
   </g>
   <g id="patch_3">
    <path d="M 57.6 307.584 
L 57.6 41.472 
" style="fill: none; stroke: #000000; stroke-width: 0.8; stroke-linejoin: miter; stroke-linecap: square"/>
   </g>
   <g id="patch_4">
    <path d="M 414.72 307.584 
L 414.72 41.472 
" style="fill: none; stroke: #000000; stroke-width: 0.8; stroke-linejoin: miter; stroke-linecap: square"/>
   </g>
   <g id="patch_5">
    <path d="M 57.6 307.584 
L 414.72 307.584 
" style="fill: none; stroke: #000000; stroke-width: 0.8; stroke-linejoin: miter; stroke-linecap: square"/>
   </g>
   <g id="patch_6">
    <path d="M 57.6 41.472 
L 414.72 41.472 
" style="fill: none; stroke: #000000; stroke-width: 0.8; stroke-linejoin: miter; stroke-linecap: square"/>
   </g>
   <g id="legend_1">
    <g id="patch_7">
     <path d="M 64.6 234.7405 
L 142.704688 234.7405 
Q 144.704688 234.7405 144.704688 232.7405 
L 144.704688 116.3155 
Q 144.704688 114.3155 142.704688 114.3155 
L 64.6 114.3155 
Q 62.6 114.3155 62.6 116.3155 
L 62.6 232.7405 
Q 62.6 234.7405 64.6 234.7405 
z
" style="fill: #ffffff; opacity: 0.8; stroke: #cccccc; stroke-linejoin: miter"/>
    </g>
    <g id="line2d_22">
     <path d="M 66.6 122.413938 
L 76.6 122.413938 
L 86.6 122.413938 
" style="fill: none; stroke: #1f77b4; stroke-width: 1.5; stroke-linecap: square"/>
    </g>
    <g id="text_16">
     <!-- Na rtmf6 -->
     <g transform="translate(94.6 125.913938) scale(0.1 -0.1)">
      <defs>
       <path id="DejaVuSans-4e" d="M 628 4666 
L 1478 4666 
L 3547 763 
L 3547 4666 
L 4159 4666 
L 4159 0 
L 3309 0 
L 1241 3903 
L 1241 0 
L 628 0 
L 628 4666 
z
" transform="scale(0.015625)"/>
       <path id="DejaVuSans-66" d="M 2375 4863 
L 2375 4384 
L 1825 4384 
Q 1516 4384 1395 4259 
Q 1275 4134 1275 3809 
L 1275 3500 
L 2222 3500 
L 2222 3053 
L 1275 3053 
L 1275 0 
L 697 0 
L 697 3053 
L 147 3053 
L 147 3500 
L 697 3500 
L 697 3744 
Q 697 4328 969 4595 
Q 1241 4863 1831 4863 
L 2375 4863 
z
" transform="scale(0.015625)"/>
      </defs>
      <use xlink:href="#DejaVuSans-4e"/>
      <use xlink:href="#DejaVuSans-61" transform="translate(74.804688 0)"/>
      <use xlink:href="#DejaVuSans-20" transform="translate(136.083984 0)"/>
      <use xlink:href="#DejaVuSans-72" transform="translate(167.871094 0)"/>
      <use xlink:href="#DejaVuSans-74" transform="translate(208.984375 0)"/>
      <use xlink:href="#DejaVuSans-6d" transform="translate(248.193359 0)"/>
      <use xlink:href="#DejaVuSans-66" transform="translate(345.605469 0)"/>
      <use xlink:href="#DejaVuSans-36" transform="translate(380.810547 0)"/>
     </g>
    </g>
    <g id="line2d_23">
     <path d="M 66.6 137.092062 
L 76.6 137.092062 
L 86.6 137.092062 
" style="fill: none; stroke: #ff7f0e; stroke-width: 1.5; stroke-linecap: square"/>
    </g>
    <g id="text_17">
     <!-- Cl rtmf6 -->
     <g transform="translate(94.6 140.592062) scale(0.1 -0.1)">
      <defs>
       <path id="DejaVuSans-43" d="M 4122 4306 
L 4122 3641 
Q 3803 3938 3442 4084 
Q 3081 4231 2675 4231 
Q 1875 4231 1450 3742 
Q 1025 3253 1025 2328 
Q 1025 1406 1450 917 
Q 1875 428 2675 428 
Q 3081 428 3442 575 
Q 3803 722 4122 1019 
L 4122 359 
Q 3791 134 3420 21 
Q 3050 -91 2638 -91 
Q 1578 -91 968 557 
Q 359 1206 359 2328 
Q 359 3453 968 4101 
Q 1578 4750 2638 4750 
Q 3056 4750 3426 4639 
Q 3797 4528 4122 4306 
z
" transform="scale(0.015625)"/>
      </defs>
      <use xlink:href="#DejaVuSans-43"/>
      <use xlink:href="#DejaVuSans-6c" transform="translate(69.824219 0)"/>
      <use xlink:href="#DejaVuSans-20" transform="translate(97.607422 0)"/>
      <use xlink:href="#DejaVuSans-72" transform="translate(129.394531 0)"/>
      <use xlink:href="#DejaVuSans-74" transform="translate(170.507812 0)"/>
      <use xlink:href="#DejaVuSans-6d" transform="translate(209.716797 0)"/>
      <use xlink:href="#DejaVuSans-66" transform="translate(307.128906 0)"/>
      <use xlink:href="#DejaVuSans-36" transform="translate(342.333984 0)"/>
     </g>
    </g>
    <g id="line2d_24">
     <path d="M 66.6 151.770188 
L 76.6 151.770188 
L 86.6 151.770188 
" style="fill: none; stroke: #2ca02c; stroke-width: 1.5; stroke-linecap: square"/>
    </g>
    <g id="text_18">
     <!-- K rtmf6 -->
     <g transform="translate(94.6 155.270188) scale(0.1 -0.1)">
      <defs>
       <path id="DejaVuSans-4b" d="M 628 4666 
L 1259 4666 
L 1259 2694 
L 3353 4666 
L 4166 4666 
L 1850 2491 
L 4331 0 
L 3500 0 
L 1259 2247 
L 1259 0 
L 628 0 
L 628 4666 
z
" transform="scale(0.015625)"/>
      </defs>
      <use xlink:href="#DejaVuSans-4b"/>
      <use xlink:href="#DejaVuSans-20" transform="translate(65.576172 0)"/>
      <use xlink:href="#DejaVuSans-72" transform="translate(97.363281 0)"/>
      <use xlink:href="#DejaVuSans-74" transform="translate(138.476562 0)"/>
      <use xlink:href="#DejaVuSans-6d" transform="translate(177.685547 0)"/>
      <use xlink:href="#DejaVuSans-66" transform="translate(275.097656 0)"/>
      <use xlink:href="#DejaVuSans-36" transform="translate(310.302734 0)"/>
     </g>
    </g>
    <g id="line2d_25">
     <path d="M 66.6 166.448313 
L 76.6 166.448313 
L 86.6 166.448313 
" style="fill: none; stroke: #d62728; stroke-width: 1.5; stroke-linecap: square"/>
    </g>
    <g id="text_19">
     <!-- Ca rtmf6 -->
     <g transform="translate(94.6 169.948313) scale(0.1 -0.1)">
      <use xlink:href="#DejaVuSans-43"/>
      <use xlink:href="#DejaVuSans-61" transform="translate(69.824219 0)"/>
      <use xlink:href="#DejaVuSans-20" transform="translate(131.103516 0)"/>
      <use xlink:href="#DejaVuSans-72" transform="translate(162.890625 0)"/>
      <use xlink:href="#DejaVuSans-74" transform="translate(204.003906 0)"/>
      <use xlink:href="#DejaVuSans-6d" transform="translate(243.212891 0)"/>
      <use xlink:href="#DejaVuSans-66" transform="translate(340.625 0)"/>
      <use xlink:href="#DejaVuSans-36" transform="translate(375.830078 0)"/>
     </g>
    </g>
    <g id="line2d_26">
     <path d="M 66.6 181.126438 
L 76.6 181.126438 
L 86.6 181.126438 
" style="fill: none; stroke-dasharray: 5.55,2.4; stroke-dashoffset: 0; stroke: #1f77b4; stroke-width: 1.5"/>
    </g>
    <g id="text_20">
     <!-- Na pht3d -->
     <g transform="translate(94.6 184.626438) scale(0.1 -0.1)">
      <defs>
       <path id="DejaVuSans-70" d="M 1159 525 
L 1159 -1331 
L 581 -1331 
L 581 3500 
L 1159 3500 
L 1159 2969 
Q 1341 3281 1617 3432 
Q 1894 3584 2278 3584 
Q 2916 3584 3314 3078 
Q 3713 2572 3713 1747 
Q 3713 922 3314 415 
Q 2916 -91 2278 -91 
Q 1894 -91 1617 61 
Q 1341 213 1159 525 
z
M 3116 1747 
Q 3116 2381 2855 2742 
Q 2594 3103 2138 3103 
Q 1681 3103 1420 2742 
Q 1159 2381 1159 1747 
Q 1159 1113 1420 752 
Q 1681 391 2138 391 
Q 2594 391 2855 752 
Q 3116 1113 3116 1747 
z
" transform="scale(0.015625)"/>
       <path id="DejaVuSans-68" d="M 3513 2113 
L 3513 0 
L 2938 0 
L 2938 2094 
Q 2938 2591 2744 2837 
Q 2550 3084 2163 3084 
Q 1697 3084 1428 2787 
Q 1159 2491 1159 1978 
L 1159 0 
L 581 0 
L 581 4863 
L 1159 4863 
L 1159 2956 
Q 1366 3272 1645 3428 
Q 1925 3584 2291 3584 
Q 2894 3584 3203 3211 
Q 3513 2838 3513 2113 
z
" transform="scale(0.015625)"/>
       <path id="DejaVuSans-33" d="M 2597 2516 
Q 3050 2419 3304 2112 
Q 3559 1806 3559 1356 
Q 3559 666 3084 287 
Q 2609 -91 1734 -91 
Q 1441 -91 1130 -33 
Q 819 25 488 141 
L 488 750 
Q 750 597 1062 519 
Q 1375 441 1716 441 
Q 2309 441 2620 675 
Q 2931 909 2931 1356 
Q 2931 1769 2642 2001 
Q 2353 2234 1838 2234 
L 1294 2234 
L 1294 2753 
L 1863 2753 
Q 2328 2753 2575 2939 
Q 2822 3125 2822 3475 
Q 2822 3834 2567 4026 
Q 2313 4219 1838 4219 
Q 1578 4219 1281 4162 
Q 984 4106 628 3988 
L 628 4550 
Q 988 4650 1302 4700 
Q 1616 4750 1894 4750 
Q 2613 4750 3031 4423 
Q 3450 4097 3450 3541 
Q 3450 3153 3228 2886 
Q 3006 2619 2597 2516 
z
" transform="scale(0.015625)"/>
      </defs>
      <use xlink:href="#DejaVuSans-4e"/>
      <use xlink:href="#DejaVuSans-61" transform="translate(74.804688 0)"/>
      <use xlink:href="#DejaVuSans-20" transform="translate(136.083984 0)"/>
      <use xlink:href="#DejaVuSans-70" transform="translate(167.871094 0)"/>
      <use xlink:href="#DejaVuSans-68" transform="translate(231.347656 0)"/>
      <use xlink:href="#DejaVuSans-74" transform="translate(294.726562 0)"/>
      <use xlink:href="#DejaVuSans-33" transform="translate(333.935547 0)"/>
      <use xlink:href="#DejaVuSans-64" transform="translate(397.558594 0)"/>
     </g>
    </g>
    <g id="line2d_27">
     <path d="M 66.6 195.804563 
L 76.6 195.804563 
L 86.6 195.804563 
" style="fill: none; stroke-dasharray: 5.55,2.4; stroke-dashoffset: 0; stroke: #d62728; stroke-width: 1.5"/>
    </g>
    <g id="text_21">
     <!-- Ca pht3d -->
     <g transform="translate(94.6 199.304563) scale(0.1 -0.1)">
      <use xlink:href="#DejaVuSans-43"/>
      <use xlink:href="#DejaVuSans-61" transform="translate(69.824219 0)"/>
      <use xlink:href="#DejaVuSans-20" transform="translate(131.103516 0)"/>
      <use xlink:href="#DejaVuSans-70" transform="translate(162.890625 0)"/>
      <use xlink:href="#DejaVuSans-68" transform="translate(226.367188 0)"/>
      <use xlink:href="#DejaVuSans-74" transform="translate(289.746094 0)"/>
      <use xlink:href="#DejaVuSans-33" transform="translate(328.955078 0)"/>
      <use xlink:href="#DejaVuSans-64" transform="translate(392.578125 0)"/>
     </g>
    </g>
    <g id="line2d_28">
     <path d="M 66.6 210.482687 
L 76.6 210.482687 
L 86.6 210.482687 
" style="fill: none; stroke-dasharray: 5.55,2.4; stroke-dashoffset: 0; stroke: #2ca02c; stroke-width: 1.5"/>
    </g>
    <g id="text_22">
     <!-- K pht3d -->
     <g transform="translate(94.6 213.982687) scale(0.1 -0.1)">
      <use xlink:href="#DejaVuSans-4b"/>
      <use xlink:href="#DejaVuSans-20" transform="translate(65.576172 0)"/>
      <use xlink:href="#DejaVuSans-70" transform="translate(97.363281 0)"/>
      <use xlink:href="#DejaVuSans-68" transform="translate(160.839844 0)"/>
      <use xlink:href="#DejaVuSans-74" transform="translate(224.21875 0)"/>
      <use xlink:href="#DejaVuSans-33" transform="translate(263.427734 0)"/>
      <use xlink:href="#DejaVuSans-64" transform="translate(327.050781 0)"/>
     </g>
    </g>
    <g id="line2d_29">
     <path d="M 66.6 225.160812 
L 76.6 225.160812 
L 86.6 225.160812 
" style="fill: none; stroke-dasharray: 5.55,2.4; stroke-dashoffset: 0; stroke: #ff7f0e; stroke-width: 1.5"/>
    </g>
    <g id="text_23">
     <!-- Cl pht3d -->
     <g transform="translate(94.6 228.660812) scale(0.1 -0.1)">
      <use xlink:href="#DejaVuSans-43"/>
      <use xlink:href="#DejaVuSans-6c" transform="translate(69.824219 0)"/>
      <use xlink:href="#DejaVuSans-20" transform="translate(97.607422 0)"/>
      <use xlink:href="#DejaVuSans-70" transform="translate(129.394531 0)"/>
      <use xlink:href="#DejaVuSans-68" transform="translate(192.871094 0)"/>
      <use xlink:href="#DejaVuSans-74" transform="translate(256.25 0)"/>
      <use xlink:href="#DejaVuSans-33" transform="translate(295.458984 0)"/>
      <use xlink:href="#DejaVuSans-64" transform="translate(359.082031 0)"/>
     </g>
    </g>
   </g>
  </g>
 </g>
 <defs>
  <clipPath id="p5ce96981a9">
   <rect x="57.6" y="41.472" width="357.12" height="266.112"/>
  </clipPath>
 </defs>
</svg>
